<svg width="24" height="24" viewBox="0 0 24 24" fill="none" xmlns="http://www.w3.org/2000/svg">
<path d="M20.3333 11.2498V7.74984C20.3333 4.83317 19.1667 3.6665 16.25 3.6665H12.75C9.83334 3.6665 8.66667 4.83317 8.66667 7.74984V8.6665H11.25C14.1667 8.6665 15.3333 9.83317 15.3333 12.7498V15.3332H16.25C19.1667 15.3332 20.3333 14.1665 20.3333 11.2498Z" stroke="white" stroke-width="1.25" stroke-linecap="round" stroke-linejoin="round"/>
<path d="M15.3333 16.2498V12.7498C15.3333 9.83317 14.1667 8.6665 11.25 8.6665H7.75001C4.83334 8.6665 3.66667 9.83317 3.66667 12.7498V16.2498C3.66667 19.1665 4.83334 20.3332 7.75001 20.3332H11.25C14.1667 20.3332 15.3333 19.1665 15.3333 16.2498Z" stroke="white" stroke-width="1.25" stroke-linecap="round" stroke-linejoin="round"/>
<path d="M7.06673 14.5L8.69173 16.125L11.9334 12.875" stroke="white" stroke-width="1.25" stroke-linecap="round" stroke-linejoin="round"/>
</svg>
