<svg width="24" height="24" viewBox="0 0 24 24" fill="none" xmlns="http://www.w3.org/2000/svg">
<path d="M11.2513 20.9582H7.7513C4.49297 20.9582 3.04297 19.5082 3.04297 16.2498V12.7498C3.04297 9.4915 4.49297 8.0415 7.7513 8.0415H11.2513C14.5096 8.0415 15.9596 9.4915 15.9596 12.7498V16.2498C15.9596 19.5082 14.5096 20.9582 11.2513 20.9582ZM7.7513 9.2915C5.16797 9.2915 4.29297 10.1665 4.29297 12.7498V16.2498C4.29297 18.8332 5.16797 19.7082 7.7513 19.7082H11.2513C13.8346 19.7082 14.7096 18.8332 14.7096 16.2498V12.7498C14.7096 10.1665 13.8346 9.2915 11.2513 9.2915H7.7513Z" fill="white"/>
<path d="M16.2513 15.9582H15.3346C14.993 15.9582 14.7096 15.6748 14.7096 15.3332V12.7498C14.7096 10.1665 13.8346 9.2915 11.2513 9.2915H8.66797C8.3263 9.2915 8.04297 9.00817 8.04297 8.6665V7.74984C8.04297 4.4915 9.49297 3.0415 12.7513 3.0415H16.2513C19.5096 3.0415 20.9596 4.4915 20.9596 7.74984V11.2498C20.9596 14.5082 19.5096 15.9582 16.2513 15.9582ZM15.9596 14.7082H16.2513C18.8346 14.7082 19.7096 13.8332 19.7096 11.2498V7.74984C19.7096 5.1665 18.8346 4.2915 16.2513 4.2915H12.7513C10.168 4.2915 9.29297 5.1665 9.29297 7.74984V8.0415H11.2513C14.5096 8.0415 15.9596 9.4915 15.9596 12.7498V14.7082Z" fill="white"/>
</svg>
